HIERARCHY
ROOT hip
{
	OFFSET 0.000000 0.000000 0.000000 
	CHANNELS 6 Xposition Yposition Zposition Xrotation Zrotation Yrotation
	JOINT abdomen
	{
		OFFSET 0.000000 3.402643 0.000000 
		CHANNELS 3 Xrotation Zrotation Yrotation
		JOINT chest
		{
			OFFSET 0.000000 8.438565 -0.680529 
			CHANNELS 3 Xrotation Zrotation Yrotation
			JOINT neck
			{
				OFFSET 0.000000 10.207942 -0.272212 
				CHANNELS 3 Xrotation Zrotation Yrotation
				JOINT head
				{
					OFFSET 0.000000 3.130431 0.000000 
					CHANNELS 3 Xrotation Zrotation Yrotation
					End Site
					{
						OFFSET 0.000000 3.130435 0.000000 
					}
				}
			}
			JOINT lCollar
			{
				OFFSET 3.470700 6.669187 -0.816635 
				CHANNELS 3 Yrotation Zrotation Xrotation
				JOINT lShldr
				{
					OFFSET 3.198488 0.000000 0.000000 
					CHANNELS 3 Zrotation Yrotation Xrotation
					JOINT lForeArm
					{
						OFFSET 10.139888 0.000000 0.000000 
						CHANNELS 3 Yrotation Zrotation Xrotation
						JOINT lHand
						{
							OFFSET 8.370511 0.000000 0.000000 
							CHANNELS 3 Zrotation Yrotation Xrotation
							End Site
							{
								OFFSET 4.083176 0.000000 0.000000 
							}
						}
					}
				}
			}
			JOINT rCollar
			{
				OFFSET -3.470700 6.669187 -0.816635 
				CHANNELS 3 Yrotation Zrotation Xrotation
				JOINT rShldr
				{
					OFFSET -3.198488 0.000000 0.000000 
					CHANNELS 3 Zrotation Yrotation Xrotation
					JOINT rForeArm
					{
						OFFSET -10.139888 0.000000 0.000000 
						CHANNELS 3 Yrotation Zrotation Xrotation
						JOINT rHand
						{
							OFFSET -8.370511 0.000000 0.000000 
							CHANNELS 3 Zrotation Yrotation Xrotation
							End Site
							{
								OFFSET -4.083176 0.000000 0.000000 
							}
						}
					}
				}
			}
		}
	}
	JOINT lThigh
	{
		OFFSET 5.308129 -1.633274 1.361059 
		CHANNELS 3 Xrotation Zrotation Yrotation
		JOINT lShin
		{
			OFFSET -2.041588 -20.007561 0.000000 
			CHANNELS 3 Xrotation Zrotation Yrotation
			JOINT lFoot
			{
				OFFSET 0.000000 -19.190928 -1.224953 
				CHANNELS 3 Xrotation Yrotation Zrotation
				End Site
				{
					OFFSET 0.000000 -2.449906 4.627600 
				}
			}
		}
	}
	JOINT rThigh
	{
		OFFSET -5.308129 -1.633274 1.361059 
		CHANNELS 3 Xrotation Zrotation Yrotation
		JOINT rShin
		{
			OFFSET 2.041588 -20.007561 0.000000 
			CHANNELS 3 Xrotation Zrotation Yrotation
			JOINT rFoot
			{
				OFFSET 0.000000 -19.190928 -1.224953 
				CHANNELS 3 Xrotation Yrotation Zrotation
				End Site
				{
					OFFSET 0.000000 -2.449906 4.627600 
				}
			}
		}
	}
}
MOTION
Frames: 13
Frame Time: 0.033333
0.177113 43.496719 0.441215 -1.836221 -8.423470 92.563950 0.000000 0.000000 0.000000 4.590768 -1.148648 6.079473 11.056682 -5.932329 -0.473649 -9.760071 2.196711 7.445010 12.652738 18.633421 20.105131 -96.543915 -0.864880 -6.756919 -39.423889 2.796466 15.845816 -2.425805 13.842311 49.839428 -3.423762 -23.214092 22.901304 82.172256 20.959118 75.166199 14.241368 -29.067577 -15.920888 24.941130 -2.070259 -9.831977 11.130971 11.113135 21.016832 43.477245 5.286078 -0.689543 -1.938251 -12.195344 -22.224762 -12.160340 2.673840 2.331248 18.300056 3.130808 1.331079 -5.453511 -16.321630 26.352875 
0.242653 43.599247 0.775345 -2.636447 -8.506742 92.175972 0.000000 0.000000 0.000000 4.541060 -0.253109 6.278683 11.141627 -5.252144 -0.423916 -9.531296 2.617306 3.088449 12.286213 19.815832 19.984072 -97.523331 -1.382274 -6.124694 -40.552834 2.230333 18.747351 -4.555655 14.279424 49.250877 -3.859472 -23.505550 22.689760 82.314064 20.568317 75.345261 14.267833 -28.364649 -16.902962 24.290243 -2.391807 -10.022496 5.789941 12.480349 21.651667 52.209072 8.330822 -0.434594 0.664497 -9.847687 -21.300756 -10.148826 4.371459 2.760635 17.938347 2.730453 1.212466 -6.227044 -16.071411 26.520987 
0.194102 43.729897 0.956588 -2.823838 -8.476173 90.748360 0.000000 0.000000 0.000000 4.834108 0.408697 6.421351 11.164216 -5.411737 -0.439345 -9.300364 3.410845 -1.022809 12.711121 20.078585 19.764709 -97.616356 -1.455287 -6.065459 -42.762257 0.590459 20.378868 -6.125791 14.047219 48.864288 -3.140218 -24.300323 22.933031 82.582634 20.779362 75.434464 14.531836 -28.509193 -16.584900 24.255150 -2.187666 -10.014659 1.014615 12.986623 21.801662 59.217037 9.812650 -0.388400 2.052860 -6.527928 -20.721119 -8.137678 5.560517 3.059698 17.521194 2.263971 1.045482 -7.178584 -15.119972 25.148672 
-0.038690 43.852692 0.954489 -2.313511 -8.977171 88.816849 0.000000 0.000000 0.000000 4.824541 0.661710 6.471974 11.141005 -5.732225 -0.461771 -9.274517 4.043615 -5.589654 12.914865 20.204853 19.651009 -97.868927 -1.242789 -5.908010 -45.578472 -1.715812 17.949472 -5.063108 12.764751 49.399624 -2.298410 -25.290071 23.229450 82.663010 21.339872 75.351646 15.299163 -29.440170 -15.295864 24.818598 -1.858800 -9.880404 -4.335906 12.542671 21.407654 64.044807 9.954176 -0.543691 2.681129 -3.350863 -20.812592 -7.088586 5.712502 3.061094 17.490040 2.027688 1.011451 -7.822781 -13.516679 24.487869 
-0.386645 43.937744 0.734992 -0.237884 -9.853433 87.364326 0.000000 0.000000 0.000000 4.404575 -0.642628 6.200396 11.227638 -5.127462 -0.417139 -9.524389 3.833624 -11.361181 11.825957 21.024771 19.907495 -99.057579 -1.262023 -5.157082 -48.521065 -3.459902 13.029286 -2.557120 10.264129 50.366520 -2.715009 -25.816437 22.994030 82.187981 21.466747 75.049011 16.901220 -30.630291 -14.270288 24.959763 -1.698492 -9.858603 -10.242581 10.045467 20.075525 66.046867 9.290625 -0.747305 3.077841 -0.839246 -21.626169 -6.873505 3.535175 2.403791 17.986723 2.311111 1.108414 -8.262634 -11.776946 25.405996 
-0.739364 44.012608 0.525744 0.793904 -10.243178 85.550957 0.000000 0.000000 0.000000 4.502505 -0.895665 6.140267 11.226502 -4.479511 -0.373285 -9.666778 3.626396 -16.889076 10.690854 21.595285 20.258282 -99.790459 -1.689108 -4.691298 -51.049664 -5.190958 8.322511 -0.265057 7.991756 51.109951 -3.354453 -26.336075 22.661575 81.865372 21.642092 74.829216 18.666159 -31.545509 -14.273418 24.218603 -1.602545 -9.996024 -14.890787 9.040721 19.326395 65.399315 7.990884 -1.023611 3.046672 0.536373 -22.475090 -6.219055 2.655906 2.114478 18.314756 2.358811 1.154304 -8.809734 -10.397990 25.479507 
-1.098868 44.048725 0.315366 1.750645 -10.952041 84.070236 0.000000 0.000000 0.000000 4.102535 -1.246798 6.072498 11.339425 -3.452839 -0.299199 -9.708840 3.282352 -21.896042 9.037626 22.616745 20.767443 -100.725548 -2.135860 -4.096364 -53.447750 -5.920510 5.539784 0.516475 6.776643 51.398350 -4.645766 -26.251066 22.075241 81.299606 21.373720 74.570763 20.692253 -32.225132 -14.944157 23.070309 -1.549116 -10.195231 -19.155716 8.267215 18.606901 62.371368 6.507082 -1.248127 2.682278 1.820304 -22.736313 -5.934716 1.864575 1.880426 18.417480 2.320549 1.164499 -9.440063 -9.533180 25.363726 
-1.467244 44.077530 0.108484 2.401210 -11.435528 82.570305 0.000000 0.000000 0.000000 3.936712 -1.393191 6.046504 11.387411 -2.427628 -0.217675 -9.592828 2.801975 -26.037642 7.227535 23.775869 21.388142 -101.595093 -2.931387 -3.550283 -55.063843 -5.892114 4.526255 0.049213 5.848435 51.359203 -5.934822 -25.933420 21.513367 80.753494 20.950777 74.367409 22.809721 -32.907486 -15.796730 21.985720 -1.671323 -10.408683 -22.328804 8.023254 18.122828 57.220631 4.810848 -1.422359 2.039657 3.231923 -22.358610 -5.213071 1.464688 1.742917 18.152100 2.066479 1.103272 -10.146358 -8.798411 24.915512 
-1.800945 44.131210 -0.100389 2.745829 -11.003286 80.968132 0.000000 0.000000 0.000000 4.757345 -1.430603 6.013560 11.380829 -1.479695 -0.148172 -9.525660 2.208956 -28.916227 5.472708 24.732992 22.056240 -102.248077 -3.999834 -3.143260 -55.852425 -5.310892 4.374554 -0.768784 5.408477 51.208439 -6.724914 -25.494181 21.212488 80.286987 20.649460 74.167786 24.614519 -33.564495 -15.911427 21.422342 -1.679998 -10.501893 -23.425722 8.162572 18.035736 50.456974 3.005415 -1.532690 1.542964 4.303456 -22.004833 -3.199983 1.297813 1.635354 17.370136 1.568523 0.904270 -10.728891 -7.533317 24.649178 
-2.100378 44.173996 -0.316551 2.949680 -10.484447 79.422043 0.000000 0.000000 0.000000 5.587801 -1.477325 5.978324 11.406862 -0.589127 -0.090871 -9.568449 1.660913 -30.603455 3.715353 25.697624 22.786280 -102.895119 -4.999516 -2.747052 -56.060917 -4.337244 4.516678 -1.168724 5.277359 51.068447 -7.457135 -24.834637 20.975458 79.715599 20.468626 73.885406 26.078638 -33.954552 -14.675567 21.442417 -1.405746 -10.479792 -23.505770 8.476814 18.128267 42.872185 1.155120 -1.582632 1.768657 5.146547 -21.995281 -0.898045 1.083423 1.523275 16.286106 1.041584 0.713489 -10.774579 -6.143642 25.806068 
-2.373346 44.179417 -0.544474 2.987353 -10.269526 77.787102 0.000000 0.000000 0.000000 6.036838 -1.349897 5.989878 11.396513 0.115685 -0.032829 -9.535160 1.169339 -31.291162 2.032798 26.649504 23.525476 -103.508820 -5.704201 -2.380148 -55.819183 -3.235859 4.731431 -1.334255 5.120944 50.914127 -8.095745 -24.190630 20.787334 79.215073 20.243391 73.655731 27.259556 -34.319145 -12.462952 22.066402 -0.857749 -10.331163 -23.198088 8.960623 18.319046 34.726284 -0.613284 -1.526387 2.472064 6.365617 -22.453955 1.265398 0.983289 1.418889 15.130377 0.563704 0.515916 -11.040142 -4.708904 26.473637 
-2.566705 44.148003 -0.778904 2.836155 -10.007507 76.214752 0.000000 0.000000 0.000000 6.436689 -1.077153 6.040434 11.455893 0.668666 0.004571 -9.600499 0.556613 -31.286556 0.683238 27.236282 24.167671 -103.789345 -6.099242 -2.211619 -55.352512 -2.162412 5.219298 -1.730394 4.921828 50.715748 -8.485820 -23.568504 20.725782 78.669960 19.800985 73.443443 28.214478 -34.557373 -10.171055 22.814743 -0.208733 -10.143115 -22.177479 9.492030 18.632282 26.795677 -2.202822 -1.438901 2.925480 7.921082 -23.272709 3.751431 0.867820 1.315555 13.803915 0.268787 0.349899 -12.284592 -3.308564 25.057713 
-2.660184 44.080666 -1.015285 2.435515 -9.464254 75.076836 0.000000 0.000000 0.000000 7.070854 -0.707469 6.093775 11.653255 1.248029 0.042367 -9.961123 -0.249952 -31.058632 -0.517333 27.503050 24.745562 -103.825027 -6.355214 -2.193065 -54.600502 -1.368306 5.826283 -1.699655 5.060560 50.575756 -8.952262 -22.823334 20.661215 77.886337 19.129925 73.155861 28.956034 -34.478706 -8.081656 23.241653 0.478577 -9.990356 -20.555323 9.774259 18.930689 19.963978 -3.168215 -1.234258 2.801550 8.808278 -23.920670 6.814843 0.644963 1.190716 12.471303 0.171733 0.208647 -13.820448 -2.309763 23.862947 
